<mxfile host="www.draw.io" modified="2020-03-05T11:53:36.944Z" agent="Mozilla/5.0 (Windows NT 10.0; WOW64; rv:68.0) Gecko/20100101 Firefox/68.0" etag="5WT-g-1rPa-S6OX_LU5Y" version="12.7.9" type="github">
  <diagram id="oInA9YpVJKGzTpnUIwjt" name="Page-1">
    <mxGraphModel dx="1254" dy="1839" grid="1" gridSize="10" guides="1" tooltips="1" connect="1" arrows="1" fold="1" page="1" pageScale="1" pageWidth="850" pageHeight="1100" math="0" shadow="0">
      <root>
        <mxCell id="0" />
        <mxCell id="1" parent="0" />
        <mxCell id="J2-bpZsxf6MJ3AO0Zzre-2" value="w1" style="text;html=1;resizable=0;autosize=1;align=center;verticalAlign=middle;points=[];fillColor=none;strokeColor=none;rounded=0;fontColor=#0050A1;fontStyle=1" parent="1" vertex="1">
          <mxGeometry x="216" y="120" width="30" height="20" as="geometry" />
        </mxCell>
        <mxCell id="J2-bpZsxf6MJ3AO0Zzre-5" value="w2" style="text;html=1;resizable=0;autosize=1;align=center;verticalAlign=middle;points=[];fillColor=none;strokeColor=none;rounded=0;fontColor=#0050A1;fontStyle=1" parent="1" vertex="1">
          <mxGeometry x="336" y="120" width="30" height="20" as="geometry" />
        </mxCell>
        <mxCell id="J2-bpZsxf6MJ3AO0Zzre-6" value="w3" style="text;html=1;resizable=0;autosize=1;align=center;verticalAlign=middle;points=[];fillColor=none;strokeColor=none;rounded=0;fontColor=#0050A1;fontStyle=1" parent="1" vertex="1">
          <mxGeometry x="456" y="120" width="30" height="20" as="geometry" />
        </mxCell>
        <mxCell id="J2-bpZsxf6MJ3AO0Zzre-7" value="w4" style="text;html=1;resizable=0;autosize=1;align=center;verticalAlign=middle;points=[];fillColor=none;strokeColor=none;rounded=0;fontColor=#0050A1;fontStyle=1" parent="1" vertex="1">
          <mxGeometry x="576" y="120" width="30" height="20" as="geometry" />
        </mxCell>
        <mxCell id="J2-bpZsxf6MJ3AO0Zzre-8" value="w5" style="text;html=1;resizable=0;autosize=1;align=center;verticalAlign=middle;points=[];fillColor=none;strokeColor=none;rounded=0;fontColor=#0050A1;fontStyle=1" parent="1" vertex="1">
          <mxGeometry x="696" y="120" width="30" height="20" as="geometry" />
        </mxCell>
        <mxCell id="J2-bpZsxf6MJ3AO0Zzre-9" value="w6" style="text;html=1;resizable=0;autosize=1;align=center;verticalAlign=middle;points=[];fillColor=none;strokeColor=none;rounded=0;fontColor=#0050A1;fontStyle=1" parent="1" vertex="1">
          <mxGeometry x="816" y="120" width="30" height="20" as="geometry" />
        </mxCell>
        <mxCell id="J2-bpZsxf6MJ3AO0Zzre-10" value="LT1" style="text;html=1;resizable=0;autosize=1;align=center;verticalAlign=middle;points=[];fillColor=none;strokeColor=none;rounded=0;fontColor=#0050A1;fontStyle=1;fontSize=17;" parent="1" vertex="1">
          <mxGeometry x="16" y="110" width="40" height="30" as="geometry" />
        </mxCell>
        <mxCell id="J2-bpZsxf6MJ3AO0Zzre-19" value="LT0" style="text;html=1;resizable=0;autosize=1;align=center;verticalAlign=middle;points=[];fillColor=none;strokeColor=none;rounded=0;fontColor=#0050A1;fontStyle=1;fontSize=17;" parent="1" vertex="1">
          <mxGeometry x="22" y="310" width="40" height="30" as="geometry" />
        </mxCell>
        <mxCell id="J2-bpZsxf6MJ3AO0Zzre-21" value="" style="shape=flexArrow;endArrow=classic;html=1;fontSize=17;fontColor=#0050A1;exitX=-0.05;exitY=1.1;exitDx=0;exitDy=0;exitPerimeter=0;labelBackgroundColor=#7EA6E0;strokeColor=#7EA6E0;fillColor=#A9C4EB;" parent="1" source="J2-bpZsxf6MJ3AO0Zzre-10" edge="1">
          <mxGeometry width="50" height="50" relative="1" as="geometry">
            <mxPoint x="66" y="180" as="sourcePoint" />
            <mxPoint x="1030" y="143" as="targetPoint" />
          </mxGeometry>
        </mxCell>
        <mxCell id="J2-bpZsxf6MJ3AO0Zzre-22" value="" style="shape=flexArrow;endArrow=classic;html=1;fontSize=17;fontColor=#0050A1;exitX=-0.05;exitY=1.1;exitDx=0;exitDy=0;exitPerimeter=0;labelBackgroundColor=#7EA6E0;strokeColor=#7EA6E0;fillColor=#9AC7BF;" parent="1" edge="1">
          <mxGeometry width="50" height="50" relative="1" as="geometry">
            <mxPoint x="20" y="340" as="sourcePoint" />
            <mxPoint x="882" y="340" as="targetPoint" />
          </mxGeometry>
        </mxCell>
        <mxCell id="J2-bpZsxf6MJ3AO0Zzre-23" value="Development" style="rounded=1;whiteSpace=wrap;html=1;fontSize=17;fontColor=#0050A1;" parent="1" vertex="1">
          <mxGeometry x="9" y="350" width="108" height="20" as="geometry" />
        </mxCell>
        <mxCell id="J2-bpZsxf6MJ3AO0Zzre-24" value="Release" style="rounded=1;whiteSpace=wrap;html=1;fontSize=17;fontColor=#0050A1;" parent="1" vertex="1">
          <mxGeometry x="16" y="160" width="94" height="20" as="geometry" />
        </mxCell>
        <mxCell id="J2-bpZsxf6MJ3AO0Zzre-37" style="edgeStyle=orthogonalEdgeStyle;rounded=0;orthogonalLoop=1;jettySize=auto;html=1;exitX=1;exitY=0;exitDx=0;exitDy=0;labelBackgroundColor=#7EA6E0;strokeColor=#7EA6E0;fontSize=17;fontColor=#0050A1;" parent="1" source="J2-bpZsxf6MJ3AO0Zzre-25" edge="1">
          <mxGeometry relative="1" as="geometry">
            <mxPoint x="590" y="340" as="targetPoint" />
          </mxGeometry>
        </mxCell>
        <mxCell id="J2-bpZsxf6MJ3AO0Zzre-25" value="Feature 3 (3 stories) V&amp;amp;V" style="rounded=1;whiteSpace=wrap;html=1;fontSize=16;fillColor=#d5e8d4;strokeColor=#82b366;fontStyle=0" parent="1" vertex="1">
          <mxGeometry x="300" y="490" width="290" height="20" as="geometry" />
        </mxCell>
        <mxCell id="J2-bpZsxf6MJ3AO0Zzre-36" style="edgeStyle=orthogonalEdgeStyle;rounded=0;orthogonalLoop=1;jettySize=auto;html=1;exitX=1;exitY=0;exitDx=0;exitDy=0;labelBackgroundColor=#7EA6E0;strokeColor=#7EA6E0;fontSize=17;fontColor=#0050A1;" parent="1" source="J2-bpZsxf6MJ3AO0Zzre-26" edge="1">
          <mxGeometry relative="1" as="geometry">
            <mxPoint x="299.9411764705883" y="340" as="targetPoint" />
          </mxGeometry>
        </mxCell>
        <mxCell id="J2-bpZsxf6MJ3AO0Zzre-26" value="Feature 1 (3 stories) V&amp;amp;V" style="rounded=1;whiteSpace=wrap;html=1;fontSize=16;fillColor=#fff2cc;strokeColor=#d6b656;fontStyle=0" parent="1" vertex="1">
          <mxGeometry x="22" y="430" width="280" height="20" as="geometry" />
        </mxCell>
        <mxCell id="J2-bpZsxf6MJ3AO0Zzre-29" value="w0" style="text;html=1;resizable=0;autosize=1;align=center;verticalAlign=middle;points=[];fillColor=none;strokeColor=none;rounded=0;fontColor=#0050A1;fontStyle=1" parent="1" vertex="1">
          <mxGeometry x="96" y="120" width="30" height="20" as="geometry" />
        </mxCell>
        <mxCell id="J2-bpZsxf6MJ3AO0Zzre-34" style="edgeStyle=orthogonalEdgeStyle;rounded=0;orthogonalLoop=1;jettySize=auto;html=1;exitX=1;exitY=0;exitDx=0;exitDy=0;labelBackgroundColor=#7EA6E0;strokeColor=#7EA6E0;fontSize=17;fontColor=#0050A1;" parent="1" source="J2-bpZsxf6MJ3AO0Zzre-31" edge="1">
          <mxGeometry relative="1" as="geometry">
            <mxPoint x="471" y="340" as="targetPoint" />
          </mxGeometry>
        </mxCell>
        <mxCell id="J2-bpZsxf6MJ3AO0Zzre-31" value="Feature 2 (2 stories)" style="rounded=1;whiteSpace=wrap;html=1;fontSize=17;fillColor=#dae8fc;strokeColor=#6c8ebf;fontColor=#0050A1;" parent="1" vertex="1">
          <mxGeometry x="202" y="460" width="270" height="20" as="geometry" />
        </mxCell>
        <mxCell id="J2-bpZsxf6MJ3AO0Zzre-38" value="" style="shape=flexArrow;endArrow=classic;html=1;labelBackgroundColor=#7EA6E0;strokeColor=#7EA6E0;fillColor=none;fontSize=17;fontColor=#0050A1;" parent="1" edge="1">
          <mxGeometry width="50" height="50" relative="1" as="geometry">
            <mxPoint x="330" y="325" as="sourcePoint" />
            <mxPoint x="330" y="220" as="targetPoint" />
          </mxGeometry>
        </mxCell>
        <mxCell id="J2-bpZsxf6MJ3AO0Zzre-39" value="" style="shape=flexArrow;endArrow=classic;html=1;labelBackgroundColor=#7EA6E0;strokeColor=#7EA6E0;fillColor=none;fontSize=17;fontColor=#0050A1;" parent="1" edge="1">
          <mxGeometry width="50" height="50" relative="1" as="geometry">
            <mxPoint x="490" y="325" as="sourcePoint" />
            <mxPoint x="490" y="220" as="targetPoint" />
          </mxGeometry>
        </mxCell>
        <mxCell id="J2-bpZsxf6MJ3AO0Zzre-40" value="" style="shape=flexArrow;endArrow=classic;html=1;labelBackgroundColor=#7EA6E0;strokeColor=#7EA6E0;fillColor=none;fontSize=17;fontColor=#0050A1;" parent="1" edge="1">
          <mxGeometry width="50" height="50" relative="1" as="geometry">
            <mxPoint x="590" y="325" as="sourcePoint" />
            <mxPoint x="590" y="220" as="targetPoint" />
          </mxGeometry>
        </mxCell>
        <mxCell id="yDNGOB7GQb5LNbqF-BeX-9" value="" style="endArrow=none;dashed=1;html=1;" parent="1" edge="1">
          <mxGeometry width="50" height="50" relative="1" as="geometry">
            <mxPoint x="120" y="360" as="sourcePoint" />
            <mxPoint x="120" y="60" as="targetPoint" />
          </mxGeometry>
        </mxCell>
        <mxCell id="yDNGOB7GQb5LNbqF-BeX-10" value="" style="endArrow=none;dashed=1;html=1;" parent="1" edge="1">
          <mxGeometry width="50" height="50" relative="1" as="geometry">
            <mxPoint x="600" y="360" as="sourcePoint" />
            <mxPoint x="600" y="60" as="targetPoint" />
          </mxGeometry>
        </mxCell>
        <mxCell id="yDNGOB7GQb5LNbqF-BeX-12" value="CAT F1 + E2E TA&amp;nbsp; " style="rounded=1;whiteSpace=wrap;html=1;fontSize=16;fillColor=#fff2cc;strokeColor=#d6b656;fontStyle=0" parent="1" vertex="1">
          <mxGeometry x="336" y="150" width="234" height="20" as="geometry" />
        </mxCell>
        <mxCell id="yDNGOB7GQb5LNbqF-BeX-13" value="CAT F2 + E2E TA&amp;nbsp; " style="rounded=1;whiteSpace=wrap;html=1;fontSize=16;fillColor=#dae8fc;strokeColor=#6c8ebf;fontStyle=0" parent="1" vertex="1">
          <mxGeometry x="490" y="176" width="220" height="20" as="geometry" />
        </mxCell>
        <mxCell id="yDNGOB7GQb5LNbqF-BeX-16" value="Feature 2 (2 stories) V&amp;amp;V" style="rounded=1;whiteSpace=wrap;html=1;fontSize=16;fillColor=#dae8fc;strokeColor=#6c8ebf;fontStyle=0" parent="1" vertex="1">
          <mxGeometry x="202" y="460" width="270" height="20" as="geometry" />
        </mxCell>
        <mxCell id="yDNGOB7GQb5LNbqF-BeX-17" value="CAT R" style="rounded=1;whiteSpace=wrap;html=1;fontSize=16;fillColor=#f8cecc;strokeColor=#b85450;fontStyle=0;arcSize=50;" parent="1" vertex="1">
          <mxGeometry x="870" width="84" height="20" as="geometry" />
        </mxCell>
        <mxCell id="yDNGOB7GQb5LNbqF-BeX-18" value="w7" style="text;html=1;resizable=0;autosize=1;align=center;verticalAlign=middle;points=[];fillColor=none;strokeColor=none;rounded=0;fontColor=#0050A1;fontStyle=1" parent="1" vertex="1">
          <mxGeometry x="940" y="120" width="30" height="20" as="geometry" />
        </mxCell>
        <mxCell id="yDNGOB7GQb5LNbqF-BeX-19" value="" style="shape=flexArrow;endArrow=classic;html=1;fontSize=17;fontColor=#0050A1;exitX=-0.05;exitY=1.1;exitDx=0;exitDy=0;exitPerimeter=0;labelBackgroundColor=#7EA6E0;strokeColor=#7EA6E0;fillColor=#7EA6E0;" parent="1" edge="1">
          <mxGeometry width="50" height="50" relative="1" as="geometry">
            <mxPoint x="20" y="-20" as="sourcePoint" />
            <mxPoint x="1064" y="-20" as="targetPoint" />
          </mxGeometry>
        </mxCell>
        <mxCell id="yDNGOB7GQb5LNbqF-BeX-20" value="LTA" style="text;html=1;resizable=0;autosize=1;align=center;verticalAlign=middle;points=[];fillColor=none;strokeColor=none;rounded=0;fontColor=#0050A1;fontStyle=1;fontSize=17;" parent="1" vertex="1">
          <mxGeometry x="17" y="-50" width="50" height="30" as="geometry" />
        </mxCell>
        <mxCell id="yDNGOB7GQb5LNbqF-BeX-21" value="CAT Regression" style="rounded=1;whiteSpace=wrap;html=1;fontSize=17;fontColor=#0050A1;" parent="1" vertex="1">
          <mxGeometry x="22" y="10" width="138" height="20" as="geometry" />
        </mxCell>
        <mxCell id="yDNGOB7GQb5LNbqF-BeX-22" value="" style="shape=flexArrow;endArrow=classic;html=1;labelBackgroundColor=#7EA6E0;strokeColor=#7EA6E0;fillColor=none;fontSize=17;fontColor=#0050A1;" parent="1" edge="1">
          <mxGeometry width="50" height="50" relative="1" as="geometry">
            <mxPoint x="846" y="115" as="sourcePoint" />
            <mxPoint x="846" y="10" as="targetPoint" />
          </mxGeometry>
        </mxCell>
        <mxCell id="yDNGOB7GQb5LNbqF-BeX-23" value="CAT F3 + E2E TA&amp;nbsp; " style="rounded=1;whiteSpace=wrap;html=1;fontSize=16;fillColor=#d5e8d4;strokeColor=#82b366;fontStyle=0" parent="1" vertex="1">
          <mxGeometry x="616" y="203" width="214" height="20" as="geometry" />
        </mxCell>
        <mxCell id="yDNGOB7GQb5LNbqF-BeX-24" value="Story Automation" style="rounded=1;whiteSpace=wrap;html=1;fontSize=16;fontColor=#333333;fillColor=#E6E6E6;strokeColor=none;" parent="1" vertex="1">
          <mxGeometry x="112" y="390" width="538" height="30" as="geometry" />
        </mxCell>
        <mxCell id="yDNGOB7GQb5LNbqF-BeX-25" value="CAT R" style="rounded=1;whiteSpace=wrap;html=1;fontSize=16;fillColor=#f8cecc;strokeColor=#b85450;fontStyle=0;arcSize=50;" parent="1" vertex="1">
          <mxGeometry x="790" y="160" width="60" height="20" as="geometry" />
        </mxCell>
        <mxCell id="yDNGOB7GQb5LNbqF-BeX-26" value="" style="shape=flexArrow;endArrow=classic;html=1;fillColor=#3399FF;fontSize=16;fontColor=#0050A1;strokeColor=#82b366;" parent="1" edge="1">
          <mxGeometry width="50" height="50" relative="1" as="geometry">
            <mxPoint x="960" y="-30" as="sourcePoint" />
            <mxPoint x="960" y="-110" as="targetPoint" />
          </mxGeometry>
        </mxCell>
        <mxCell id="yDNGOB7GQb5LNbqF-BeX-27" value="Ready" style="text;html=1;resizable=0;autosize=1;align=center;verticalAlign=middle;points=[];fillColor=none;strokeColor=none;rounded=0;fontSize=18;fontColor=#007FFF;fontStyle=1" parent="1" vertex="1">
          <mxGeometry x="975" y="-75" width="70" height="30" as="geometry" />
        </mxCell>
        <mxCell id="ES80SX5Zz3jKVwGMJFqL-1" value="Story R" style="rounded=1;whiteSpace=wrap;html=1;fontSize=16;fillColor=#f8cecc;strokeColor=#b85450;fontStyle=0;arcSize=50;" vertex="1" parent="1">
          <mxGeometry x="640" y="350" width="90" height="20" as="geometry" />
        </mxCell>
      </root>
    </mxGraphModel>
  </diagram>
</mxfile>
